# xmcd
#
# Track frame offsets: 
#        150
#        12476
#        22408
#        34996
#        47375
#        64693
#        77326
#        87636
#        99639
#        109776
#        121308
#        133503
#
# Disc length: 1919 seconds
#
# Revision: 0
# Processed by: cddbd v1.5.2PL0 Copyright (c) Steve Scherf et al.
# Submitted via: ExactAudioCopy v0.95b3
#
DISCID=9c077d0c
DTITLE=Brenda Lee  - All Alone Am I
DYEAR=1900
DGENRE=
TTITLE0=All Alone Am I
TTITLE1=By Myself
TTITLE2=I Left My Heart In San Francisco
TTITLE3=It's All Right With Me
TTITLE4=My Coloring Book
TTITLE5=My Prayer
TTITLE6=Lover
TTITLE7=All By Myself
TTITLE8=What Kind Of Fool Am I
TTITLE9=Come Rain Or Come Shine
TTITLE10=I Haven't Anyone Till You
TTITLE11=Fly Me To The Moon
EXTD=
EXTT0=
EXTT1=
EXTT2=
EXTT3=
EXTT4=
EXTT5=
EXTT6=
EXTT7=
EXTT8=
EXTT9=
EXTT10=
EXTT11=
PLAYORDER=
